<?xml version="1.0" encoding="UTF-8"?>
<svg width="64px" height="64px" viewBox="0 0 64 64" version="1.1" xmlns="http://www.w3.org/2000/svg" xmlns:xlink="http://www.w3.org/1999/xlink">
    <!-- Generator: Sketch 44.1 (41455) - http://www.bohemiancoding.com/sketch -->
    <title>Ex1</title>
    <desc>Created with Sketch.</desc>
    <defs>
        <polygon id="path-1" points="0.00013345964 0.296107572 62.8741711 0.296107572 62.8741711 63.039393 0.00013345964 63.039393"></polygon>
    </defs>
    <g id="Page-1" stroke="none" stroke-width="1" fill="none" fill-rule="evenodd">
        <g id="Ex1">
            <g id="Page-1" transform="translate(0.000000, -3.000000)">
                <g id="Group-3" transform="translate(0.000000, 0.147832)">
                    <mask id="mask-2" fill="white">
                        <use xlink:href="#path-1"></use>
                    </mask>
                    <g id="Clip-2"></g>
                </g>
                <path d="M51.3189522,23.6363636 L51.3189522,39.3939394 C52.4503261,39.07144 53.2927581,37.9486475 53.2927581,36.6187957 L53.2927581,26.4115074 C53.2927581,25.0816556 52.4503261,23.958863 51.3189522,23.6363636" id="Fill-4" fill="#66BB66"></path>
                <path d="M19.5284702,49.3176798 L19.1555576,49.3176798 C16.2191535,49.3176798 13.816641,46.9204071 13.816641,43.9904071 L13.816641,19.1151514 C13.816641,16.1851515 16.2191535,13.7878788 19.1555576,13.7878788 L44.0851838,13.7878788 C47.0215879,13.7878788 49.4241004,16.1851515 49.4241004,19.1151514 L49.4241004,43.9904071 C49.4241004,46.7925594 47.2266763,49.1074602 44.4663605,49.304142 C42.8725367,43.9266113 37.8899181,40 31.987,40 C26.0898128,40 21.11447,43.9332027 19.5284702,49.3176798 Z" id="Combined-Shape" fill="#66BB66"></path>
                <path d="M11.8428351,23.6363636 C10.7114612,23.958863 9.86902928,25.0816556 9.86902928,26.4115074 L9.86902928,36.6187957 C9.86902928,37.9486475 10.7114612,39.07144 11.8428351,39.3939394 L11.8428351,23.6363636 Z" id="Fill-10" fill="#66BB66"></path>
                <path d="M25.6594761,31.4393939 C25.6594761,33.0709819 24.3337589,34.3939394 22.6987673,34.3939394 C21.0633282,34.3939394 19.7380586,33.0709819 19.7380586,31.4393939 C19.7380586,29.807806 21.0633282,28.4848485 22.6987673,28.4848485 C24.3337589,28.4848485 25.6594761,29.807806 25.6594761,31.4393939" id="Fill-11" fill="#FEFEFE"></path>
                <path d="M43.4237288,31.4393939 C43.4237288,33.0709819 42.0980116,34.3939394 40.46302,34.3939394 C38.8275809,34.3939394 37.5023112,33.0709819 37.5023112,31.4393939 C37.5023112,29.807806 38.8275809,28.4848485 40.46302,28.4848485 C42.0980116,28.4848485 43.4237288,29.807806 43.4237288,31.4393939" id="Fill-13" fill="#FEFEFE"></path>
            </g>
            <g id="ic_stars_black_18px" transform="translate(22.000000, 40.000000)" fill-rule="nonzero" fill="#FBBA20">
                <path d="M9.99,0 C4.47,0 0,4.48 0,10 C0,15.52 4.47,20 9.99,20 C15.52,20 20,15.52 20,10 C20,4.48 15.52,0 9.99,0 Z M14.23,16 L10,13.45 L5.77,16 L6.89,11.19 L3.16,7.96 L8.08,7.54 L10,3 L11.92,7.53 L16.84,7.95 L13.11,11.18 L14.23,16 Z" id="Shape"></path>
            </g>
            <g id="ic_stars_black_18px" transform="translate(7.000000, 49.000000)" fill-rule="nonzero" fill="#FBBA20">
                <path d="M5.495,0.5 C2.735,0.5 0.5,2.74 0.5,5.5 C0.5,8.26 2.735,10.5 5.495,10.5 C8.26,10.5 10.5,8.26 10.5,5.5 C10.5,2.74 8.26,0.5 5.495,0.5 Z M7.615,8.5 L5.5,7.225 L3.385,8.5 L3.945,6.095 L2.08,4.48 L4.54,4.27 L5.5,2 L6.46,4.265 L8.92,4.475 L7.055,6.09 L7.615,8.5 Z" id="Shape"></path>
            </g>
            <g id="ic_stars_black_18px" transform="translate(46.000000, 49.000000)" fill-rule="nonzero" fill="#FBBA20">
                <path d="M5.495,0.5 C2.735,0.5 0.5,2.74 0.5,5.5 C0.5,8.26 2.735,10.5 5.495,10.5 C8.26,10.5 10.5,8.26 10.5,5.5 C10.5,2.74 8.26,0.5 5.495,0.5 Z M7.615,8.5 L5.5,7.225 L3.385,8.5 L3.945,6.095 L2.08,4.48 L4.54,4.27 L5.5,2 L6.46,4.265 L8.92,4.475 L7.055,6.09 L7.615,8.5 Z" id="Shape"></path>
            </g>
        </g>
    </g>
</svg>